<?xml version="1.0" encoding="UTF-8" standalone="no"?>
<svg
   xmlns:dc="http://purl.org/dc/elements/1.1/"
   xmlns:cc="http://creativecommons.org/ns#"
   xmlns:rdf="http://www.w3.org/1999/02/22-rdf-syntax-ns#"
   xmlns:svg="http://www.w3.org/2000/svg"
   xmlns="http://www.w3.org/2000/svg"
   xmlns:sodipodi="http://sodipodi.sourceforge.net/DTD/sodipodi-0.dtd"
   xmlns:inkscape="http://www.inkscape.org/namespaces/inkscape"
   inkscape:version="1.0 (4035a4fb49, 2020-05-01)"
   sodipodi:docname="bell.svg"
   xml:space="preserve"
   style="enable-background:new 0 0 512 512;"
   viewBox="0 0 512 512"
   y="0px"
   x="0px"
   id="Capa_1"
   version="1.1"
   width="30px"
   height="30px"><metadata
   id="metadata49"><rdf:RDF><cc:Work
       rdf:about=""><dc:format>image/svg+xml</dc:format><dc:type
         rdf:resource="http://purl.org/dc/dcmitype/StillImage" /></cc:Work></rdf:RDF></metadata><defs
   id="defs47" /><sodipodi:namedview
   inkscape:current-layer="Capa_1"
   inkscape:window-maximized="0"
   inkscape:window-y="0"
   inkscape:window-x="0"
   inkscape:cy="15"
   inkscape:cx="15"
   inkscape:zoom="28.333333"
   showgrid="false"
   id="namedview45"
   inkscape:window-height="480"
   inkscape:window-width="820"
   inkscape:pageshadow="2"
   inkscape:pageopacity="0"
   guidetolerance="10"
   gridtolerance="10"
   objecttolerance="10"
   borderopacity="1"
   bordercolor="#666666"
   pagecolor="#ffffff" />
<g
   style="fill:#1a1a1a"
   id="g6">
	<g
   style="fill:#1a1a1a"
   id="g4">
		<path
   style="fill:#1a1a1a"
   id="path2"
   d="M467.812,431.851l-36.629-61.056c-16.917-28.181-25.856-60.459-25.856-93.312V224c0-67.52-45.056-124.629-106.667-143.04    V42.667C298.66,19.136,279.524,0,255.993,0s-42.667,19.136-42.667,42.667V80.96C151.716,99.371,106.66,156.48,106.66,224v53.483    c0,32.853-8.939,65.109-25.835,93.291l-36.629,61.056c-1.984,3.307-2.027,7.403-0.128,10.752c1.899,3.349,5.419,5.419,9.259,5.419    H458.66c3.84,0,7.381-2.069,9.28-5.397C469.839,439.275,469.775,435.136,467.812,431.851z" />
	</g>
</g>
<g
   id="g12">
	<g
   id="g10">
		<path
   id="path8"
   d="M188.815,469.333C200.847,494.464,226.319,512,255.993,512s55.147-17.536,67.179-42.667H188.815z" />
	</g>
</g>
<g
   id="g14">
</g>
<g
   id="g16">
</g>
<g
   id="g18">
</g>
<g
   id="g20">
</g>
<g
   id="g22">
</g>
<g
   id="g24">
</g>
<g
   id="g26">
</g>
<g
   id="g28">
</g>
<g
   id="g30">
</g>
<g
   id="g32">
</g>
<g
   id="g34">
</g>
<g
   id="g36">
</g>
<g
   id="g38">
</g>
<g
   id="g40">
</g>
<g
   id="g42">
</g>
</svg>
