<?xml version="1.0" encoding="UTF-8" standalone="no"?>
<svg
   xmlns:dc="http://purl.org/dc/elements/1.1/"
   xmlns:cc="http://creativecommons.org/ns#"
   xmlns:rdf="http://www.w3.org/1999/02/22-rdf-syntax-ns#"
   xmlns:svg="http://www.w3.org/2000/svg"
   xmlns="http://www.w3.org/2000/svg"
   xmlns:sodipodi="http://sodipodi.sourceforge.net/DTD/sodipodi-0.dtd"
   xmlns:inkscape="http://www.inkscape.org/namespaces/inkscape"
   sodipodi:docname="login.svg"
   inkscape:version="1.0 (4035a4fb49, 2020-05-01)"
   id="svg3138"
   version="1.1"
   viewBox="0 0 61.846363 61.889236"
   height="40px"
   width="40px">
  <defs
     id="defs3132" />
  <sodipodi:namedview
     inkscape:window-maximized="1"
     inkscape:window-y="-8"
     inkscape:window-x="1912"
     inkscape:window-height="1017"
     inkscape:window-width="1920"
     inkscape:snap-global="false"
     showgrid="false"
     inkscape:document-rotation="0"
     inkscape:current-layer="layer1"
     inkscape:document-units="mm"
     inkscape:cy="24.346317"
     inkscape:cx="31.779763"
     inkscape:zoom="12.988889"
     inkscape:pageshadow="2"
     inkscape:pageopacity="0.0"
     borderopacity="1.0"
     bordercolor="#666666"
     pagecolor="#ffffff"
     id="base"
     showguides="true"
     inkscape:guide-bbox="true" />
  <metadata
     id="metadata3135">
    <rdf:RDF>
      <cc:Work
         rdf:about="">
        <dc:format>image/svg+xml</dc:format>
        <dc:type
           rdf:resource="http://purl.org/dc/dcmitype/StillImage" />
        <dc:title />
      </cc:Work>
    </rdf:RDF>
  </metadata>
  <g
     id="layer1"
     inkscape:groupmode="layer"
     inkscape:label="Слой 1"
     transform="translate(123.409,-98.906645)">
    <g
       id="g1126"
       transform="matrix(0.88880769,0,0,0.89089867,-6.6276557,16.769252)">
      <path
         transform="scale(0.26458333)"
         d="m -452.07031,469.03711 c -7.95489,0 -14.35742,6.40453 -14.35742,14.35937 v 91.28125 c 0,7.95489 6.40253,14.35938 14.35742,14.35938 h 69.64062 l 68.85742,-79.25586 v -3.19336 a 44.936061,45.512155 84.41647 0 1 -5.61328,-17.66211 44.936061,45.512155 84.41647 0 1 1.29883,-15.79883 c -2.58562,-2.52903 -6.12344,-4.08984 -10.04297,-4.08984 z m 61.95117,27.14258 a 17.142856,17.142856 0 0 1 0.11914,0 17.142856,17.142856 0 0 1 17.14258,17.14258 17.142856,17.142856 0 0 1 -5.02344,12.12304 c 0.20504,0.4176 0.40941,0.83494 0.61328,1.27344 8.794,18.91453 4.16756,30.83063 -12.30859,31.70117 -16.4761,0.8705 -21.772,-10.52161 -14.08985,-30.30664 0.40812,-1.05112 0.82386,-2.03421 1.24414,-2.97656 a 17.142856,17.142856 0 0 1 -4.7207,-11.81445 17.142856,17.142856 0 0 1 17.02344,-17.14258 z"
         style="fill:#333333;fill-opacity:1;stroke:none;stroke-width:3.93022;stroke-linecap:round;stroke-linejoin:round;stroke-miterlimit:4;stroke-dasharray:none;stroke-opacity:1"
         id="rect3717-8" />
      <path
         sodipodi:nodetypes="cc"
         id="path3721-8"
         d="m -117.41473,121.83368 c 1.16371,-27.432854 27.625576,-26.750434 28.453378,-0.22763"
         style="fill:none;stroke:#333333;stroke-width:5.159;stroke-linecap:butt;stroke-linejoin:miter;stroke-miterlimit:4;stroke-dasharray:none;stroke-opacity:1" />
      <g
         transform="translate(96.761905,-116.03869)"
         id="g1105">
        <path
           id="rect856-8-8-4"
           style="fill:#333333;fill-opacity:1;stroke-width:1.6965;stroke-linecap:round;stroke-linejoin:round"
           d="m -195.47641,270.28341 17.42515,-19.66145 c 1.07782,-1.21614 2.92459,-1.3275 4.14073,-0.24968 1.21615,1.07782 1.32751,2.92459 0.24969,4.14073 l -17.42515,19.66145 c -1.07782,1.21614 -2.92459,1.3275 -4.14073,0.24968 -1.21615,-1.07782 -1.32751,-2.92459 -0.24969,-4.14073 z" />
        <path
           id="rect856-3-5-1-9"
           style="fill:#333333;fill-opacity:1;stroke-width:0.796629;stroke-linecap:round;stroke-linejoin:round"
           d="m -188.24289,276.23283 -3.29032,-3.01569 c -0.9376,-0.85935 -1.0075,-2.31225 -0.15673,-3.25764 0.85077,-0.94538 2.2905,-1.01465 3.2281,-0.15531 l 3.29032,3.0157 c 0.9376,0.85935 1.0075,2.31225 0.15673,3.25763 -0.85077,0.94539 -2.29051,1.01466 -3.2281,0.15531 z" />
        <path
           id="rect856-3-7-1-5-3"
           style="fill:#333333;fill-opacity:1;stroke-width:0.973215;stroke-linecap:round;stroke-linejoin:round"
           d="m -180.95593,272.96485 -5.65323,-4.97897 c -1.03211,-0.909 -1.11698,-2.45895 -0.19031,-3.47521 0.92668,-1.01627 2.5036,-1.10262 3.5357,-0.19362 l 5.65323,4.97896 c 1.03211,0.90901 1.11698,2.45895 0.19031,3.47522 -0.92668,1.01627 -2.5036,1.10262 -3.5357,0.19362 z" />
        <path
           id="path892-3-5-9"
           style="fill:none;fill-opacity:1;stroke:#333333;stroke-width:5.01517;stroke-linecap:round;stroke-linejoin:round;stroke-miterlimit:4;stroke-dasharray:none;stroke-opacity:1"
           d="m -163.65925,238.80538 a 8.4414788,8.4414788 45 0 1 0.71855,11.91641 8.4414788,8.4414788 45 0 1 -11.91641,0.71856 8.4414788,8.4414788 45 0 1 -0.71855,-11.91641 8.4414788,8.4414788 45 0 1 11.91641,-0.71856" />
      </g>
    </g>
  </g>
</svg>
