<?xml version="1.0" encoding="UTF-8" standalone="no"?>
<svg
   xmlns:dc="http://purl.org/dc/elements/1.1/"
   xmlns:cc="http://creativecommons.org/ns#"
   xmlns:rdf="http://www.w3.org/1999/02/22-rdf-syntax-ns#"
   xmlns:svg="http://www.w3.org/2000/svg"
   xmlns="http://www.w3.org/2000/svg"
   xmlns:sodipodi="http://sodipodi.sourceforge.net/DTD/sodipodi-0.dtd"
   xmlns:inkscape="http://www.inkscape.org/namespaces/inkscape"
   inkscape:version="1.0 (4035a4fb49, 2020-05-01)"
   sodipodi:docname="logout2.svg"
   id="svg56"
   viewBox="0 0 399.15 348.31"
   version="1.1"
   height="41.125"
   width="42.759">
  <defs
     id="defs60" />
  <sodipodi:namedview
     inkscape:current-layer="svg56"
     inkscape:window-maximized="1"
     inkscape:window-y="-8"
     inkscape:window-x="1912"
     inkscape:cy="31.298508"
     inkscape:cx="-91.216318"
     inkscape:zoom="1.2917933"
     showgrid="false"
     id="namedview58"
     inkscape:window-height="1017"
     inkscape:window-width="1920"
     inkscape:pageshadow="2"
     inkscape:pageopacity="0"
     guidetolerance="10"
     gridtolerance="10"
     objecttolerance="10"
     borderopacity="1"
     bordercolor="#666666"
     pagecolor="#ffffff" />
  <metadata
     id="metadata2">
    <rdf:RDF>
      <cc:Work
         rdf:about="">
        <dc:format>image/svg+xml</dc:format>
        <dc:type
           rdf:resource="http://purl.org/dc/dcmitype/StillImage" />
        <dc:title />
      </cc:Work>
    </rdf:RDF>
  </metadata>
  <g
     transform="matrix(-0.60218,0,0,-0.61324,307.71,332.3)"
     id="g40"
     style="fill:#333333">
    <g
       fill="#333333"
       id="g38">
      <g
         fill="#333333"
         id="g36">
        <g
           fill="#333333"
           id="g34">
          <path
             d="m 192,256 c 0,-35.285 28.715,-64 64,-64 h 85.333 V 21.33 C 341.333,9.554 331.797,-0.003 320,-0.003 H 21.33 c -11.797,0 -21.333,9.557 -21.333,21.333 v 469.33 c 0,11.776 9.536,21.333 21.333,21.333 H 320 c 11.797,0 21.333,-9.557 21.333,-21.333 V 319.99 H 256 c -35.285,0 -64,-28.715 -64,-64 z"
             id="path30" />
          <path
             d="m 507.2,269.48 c 0.065,-0.079 0.119,-0.164 0.182,-0.244 0.366,-0.462 0.721,-0.933 1.048,-1.425 0.154,-0.23 0.284,-0.47 0.428,-0.705 0.216,-0.353 0.437,-0.703 0.632,-1.069 0.161,-0.3 0.296,-0.61 0.441,-0.916 0.15,-0.317 0.309,-0.629 0.444,-0.954 0.145,-0.35 0.263,-0.707 0.388,-1.062 0.104,-0.295 0.219,-0.585 0.31,-0.886 0.127,-0.418 0.224,-0.841 0.325,-1.264 0.059,-0.248 0.131,-0.491 0.182,-0.742 0.117,-0.581 0.199,-1.166 0.267,-1.753 0.012,-0.101 0.033,-0.199 0.043,-0.301 0.145,-1.434 0.145,-2.88 0,-4.314 -0.01,-0.102 -0.032,-0.2 -0.043,-0.301 -0.068,-0.587 -0.151,-1.172 -0.267,-1.753 -0.05,-0.251 -0.122,-0.494 -0.182,-0.742 -0.101,-0.423 -0.198,-0.847 -0.325,-1.264 -0.091,-0.301 -0.206,-0.591 -0.31,-0.886 -0.126,-0.355 -0.243,-0.713 -0.388,-1.062 -0.135,-0.325 -0.293,-0.637 -0.444,-0.954 -0.145,-0.306 -0.28,-0.615 -0.441,-0.916 -0.196,-0.366 -0.416,-0.716 -0.632,-1.069 -0.144,-0.235 -0.274,-0.475 -0.428,-0.705 -0.327,-0.492 -0.682,-0.963 -1.048,-1.425 -0.063,-0.08 -0.117,-0.164 -0.182,-0.244 -0.48,-0.589 -0.991,-1.151 -1.531,-1.685 l -85.254,-85.254 c -8.341,-8.341 -21.824,-8.341 -30.165,0 -8.341,8.341 -8.341,21.824 0,30.165 l 48.917,48.917 h -183.17 c -11.797,0 -21.333,9.557 -21.333,21.333 0,11.776 9.536,21.333 21.333,21.333 h 183.17 L 390.25,326.25 c -8.341,8.341 -8.341,21.824 0,30.165 4.16,4.16 9.621,6.251 15.083,6.251 5.461,0 10.923,-2.091 15.083,-6.251 l 85.254,-85.254 c 0.538,-0.53 1.049,-1.092 1.53,-1.681 z"
             id="path32" />
        </g>
      </g>
    </g>
  </g>
</svg>
