<?xml version="1.0" encoding="UTF-8" standalone="no"?>
<svg
   xmlns:dc="http://purl.org/dc/elements/1.1/"
   xmlns:cc="http://creativecommons.org/ns#"
   xmlns:rdf="http://www.w3.org/1999/02/22-rdf-syntax-ns#"
   xmlns:svg="http://www.w3.org/2000/svg"
   xmlns="http://www.w3.org/2000/svg"
   xmlns:sodipodi="http://sodipodi.sourceforge.net/DTD/sodipodi-0.dtd"
   xmlns:inkscape="http://www.inkscape.org/namespaces/inkscape"
   inkscape:version="1.0 (4035a4fb49, 2020-05-01)"
   sodipodi:docname="plus.svg"
   id="svg56"
   viewBox="0 0 399.15 348.31"
   version="1.1"
   height="41.125"
   width="42.759">
  <defs
     id="defs60" />
  <sodipodi:namedview
     inkscape:current-layer="svg56"
     inkscape:window-maximized="1"
     inkscape:window-y="-8"
     inkscape:window-x="1912"
     inkscape:cy="121.7653"
     inkscape:cx="-158.55626"
     inkscape:zoom="1.2917933"
     showgrid="false"
     id="namedview58"
     inkscape:window-height="1017"
     inkscape:window-width="1920"
     inkscape:pageshadow="2"
     inkscape:pageopacity="0"
     guidetolerance="10"
     gridtolerance="10"
     objecttolerance="10"
     borderopacity="1"
     bordercolor="#666666"
     pagecolor="#ffffff" />
  <metadata
     id="metadata2">
    <rdf:RDF>
      <cc:Work
         rdf:about="">
        <dc:format>image/svg+xml</dc:format>
        <dc:type
           rdf:resource="http://purl.org/dc/dcmitype/StillImage" />
        <dc:title />
      </cc:Work>
    </rdf:RDF>
  </metadata>
  <path
     d="m 314.84,156.24 v 42.905 q 0,8.9386 -6.257,15.196 -6.257,6.257 -15.196,6.257 h -92.961 v 92.961 q 0,8.9385 -6.2569,15.196 -6.2569,6.257 -15.196,6.257 h -42.905 q -8.9385,0 -15.195,-6.257 -6.257,-6.257 -6.257,-15.196 v -92.961 h -92.961 q -8.9386,0 -15.196,-6.257 -6.257,-6.257 -6.257,-15.196 V 156.24 q 0,-8.9386 6.257,-15.196 6.257,-6.257 15.196,-6.257 h 92.961 V 41.826 q 0,-8.9385 6.257,-15.196 6.257,-6.257 15.195,-6.257 h 42.905 q 8.9386,0 15.196,6.257 6.2569,6.257 6.2569,15.196 v 92.961 h 92.961 q 8.9386,0 15.196,6.257 6.257,6.257 6.257,15.196 z"
     stroke-width="0.22346"
     id="path42"
     style="fill:#333333" />
</svg>
