<?xml version="1.0" encoding="utf-8"?>
<!-- Svg Vector Icons : http://www.onlinewebfonts.com/icon -->
<!DOCTYPE svg PUBLIC "-//W3C//DTD SVG 1.1//EN" "http://www.w3.org/Graphics/SVG/1.1/DTD/svg11.dtd">
<svg version="1.1" xmlns="http://www.w3.org/2000/svg" xmlns:xlink="http://www.w3.org/1999/xlink" x="0px" y="0px" viewBox="0 0 1000 1000" enable-background="new 0 0 1000 1000" xml:space="preserve">
<metadata> Svg Vector Icons : http://www.onlinewebfonts.com/icon </metadata>
<g><g transform="translate(0.000000,511.000000) scale(0.100000,-0.100000)"><path d="M6638.5,4197.1c-285.5-32.9-501.2-145.8-657.3-343.1c-76-96.5-92.4-106.8-230.1-139.7c-98.6-22.6-191-61.6-271.2-115c-182.8-121.2-180.8-115-104.8-308.1c34.9-94.5,82.2-252.7,104.8-353.3c41.1-189,86.3-653.2,67.8-702.5c-6.2-14.4,10.3-61.6,39-106.8c228-365.6,152-947-164.3-1240.7c-67.8-61.6-170.5-230.1-170.5-277.3c0-18.5,223.9-147.9,341-197.2c102.7-43.1,318.4-104.8,538.2-152c55.5-10.3,49.3-61.6-28.8-228c-84.2-176.7-182.8-230.1-690.2-365.6L5190.3-392l170.5-49.3C5995.5-620,6277-733,6525.5-917.8c456-336.9,749.8-879.2,821.7-1511.9c30.8-289.7-22.6-599.8-143.8-803.2c-22.6-39-41.1-76-41.1-82.2c0-18.5,476.6,10.3,749.8,45.2c653.2,86.3,1246.9,285.5,1651.6,554.6c152,100.7,228,193.1,293.7,361.5c92.4,240.4,28.8,725.1-137.6,1043.5c-228,431.4-622.4,675.8-1668,1035.3c-400.6,137.6-435.5,156.1-517.7,254.7C7480.7,43.5,7394.5,249,7415,265.4c2.1,2.1,78.1,22.6,170.5,45.2c221.9,57.5,462.2,162.3,636.8,275.3c143.8,94.5,336.9,254.7,336.9,279.4c0,8.2-39,41.1-84.2,73.9c-106.8,76-195.2,211.6-226,353.3c-32.9,145.8-4.1,314.3,117.1,692.3c90.4,273.2,96.6,306.1,96.6,517.7c2.1,172.5-8.2,262.9-43.1,386.2c-162.3,571.1-628.6,1084.6-1144.2,1257.2C7104.8,4203.3,6858.3,4223.8,6638.5,4197.1z"/><path d="M3140.2,3868.5c-378-53.4-624.5-191-735.4-415c-28.8-55.5-69.8-92.4-152-133.5c-252.7-127.4-367.7-476.6-343.1-1031.2L1922,2032l-59.6-67.8c-184.9-209.5-113-688.2,127.4-846.3c57.5-37,80.1-69.8,96.5-139.7c69.8-275.3,357.4-696.4,647.1-947c76-65.7,78.1-71.9,67.8-168.4c-14.4-123.3-71.9-238.3-162.3-320.5c-160.2-147.9-228-176.7-891.5-367.7c-254.7-74-530-162.3-614.2-197.2c-546.4-226-899.7-688.2-1008.6-1318.8c-76-429.3,24.7-751.9,293.8-947c314.3-228,1023-472.5,1702.9-585.4c1513.9-252.7,3218.9-80.1,4281,435.5c269.1,131.5,439.6,287.6,515.6,476.6c67.8,172.6,69.8,536.1,0,790.9c-154.1,577.2-495.1,961.4-1037.4,1172.9c-80.1,30.8-355.4,117.1-612.1,191c-254.7,74-523.8,160.2-597.8,193.1C4436.4-507,4307-355,4276.2-151.6l-14.4,96.6l180.8,180.8c258.8,256.8,478.6,597.8,546.4,854.6c20.5,78.1,39,102.7,90.4,125.3c84.2,34.9,184.9,162.3,226,283.5c67.8,203.4,32.9,476.6-76,593.7c-57.5,59.6-59.6,67.8-59.6,291.7c0,365.6-76,764.2-189,984c-121.2,240.4-476.6,464.3-905.9,571.1C3881.7,3876.7,3357.9,3899.3,3140.2,3868.5z"/></g></g>
</svg>