<?xml version="1.0" encoding="UTF-8" standalone="no"?>
<svg
   xmlns:dc="http://purl.org/dc/elements/1.1/"
   xmlns:cc="http://creativecommons.org/ns#"
   xmlns:rdf="http://www.w3.org/1999/02/22-rdf-syntax-ns#"
   xmlns:svg="http://www.w3.org/2000/svg"
   xmlns="http://www.w3.org/2000/svg"
   xmlns:sodipodi="http://sodipodi.sourceforge.net/DTD/sodipodi-0.dtd"
   xmlns:inkscape="http://www.inkscape.org/namespaces/inkscape"
   width="40px"
   height="40px"
   version="1.1"
   viewBox="0 0 236.99 217.3"
   id="svg12"
   sodipodi:docname="register.svg"
   inkscape:version="1.0 (4035a4fb49, 2020-05-01)">
  <defs
     id="defs16" />
  <sodipodi:namedview
     inkscape:document-rotation="0"
     pagecolor="#ffffff"
     bordercolor="#666666"
     borderopacity="1"
     objecttolerance="10"
     gridtolerance="10"
     guidetolerance="10"
     inkscape:pageopacity="0"
     inkscape:pageshadow="2"
     inkscape:window-width="1630"
     inkscape:window-height="968"
     id="namedview14"
     showgrid="false"
     inkscape:zoom="7.5130096"
     inkscape:cx="40.701726"
     inkscape:cy="6.3950974"
     inkscape:window-x="1920"
     inkscape:window-y="0"
     inkscape:window-maximized="0"
     inkscape:current-layer="svg12" />
  <metadata
     id="metadata2">
    <rdf:RDF>
      <cc:Work
         rdf:about="">
        <dc:format>image/svg+xml</dc:format>
        <dc:type
           rdf:resource="http://purl.org/dc/dcmitype/StillImage" />
        <dc:title />
      </cc:Work>
    </rdf:RDF>
  </metadata>
  <g
     fill="#333333"
     stroke="#333333"
     stroke-linejoin="round"
     id="g10"
     transform="matrix(0.92363484,0,0,0.95070235,20.715203,11.855782)">
    <path
       d="m 18.65,8.6816 c -3.0772,0 -5.5429,2.4773 -5.5429,5.5545 v 187 c 0,3.0771 2.4657,5.5544 5.5429,5.5544 h 146.82 c 3.0772,0 5.5544,-2.4773 5.5544,-5.5544 v -93.049 l -22.785,16.49 c -15.329,3.4037 -34.284,10.171 -40.131,3.9923 -4.4665,-6.733 6.4176,-21.562 16.964,-38.407 l 45.952,-33.234 v -42.792 c 0,-3.0771 -2.4773,-5.5545 -5.5544,-5.5545 z m 35.919,6.9199 c 12.489,3.42e-4 22.604,9.8053 22.6,21.905 -0.003,8.8733 -5.5217,16.872 -13.99,20.251 14.111,4.5025 26.222,20.161 26.222,47.155 H 19.75 C 19.57026,77.9465 31.72,62.2155 45.914,57.7345 37.4735,54.3441 31.963,46.3595 31.958,37.5075 31.9535,25.4075 42.08,15.6025 54.569,15.6025 Z m -15.599,109.54 c 2.6786,-0.14853 5.1472,0.36764 7.5448,1.2498 4.7952,1.7642 9.2892,4.9988 14.499,7.3249 7.2502,4.3518 13.428,2.7005 21.338,0.13887 7.521,-2.4354 16.898,-2.542 24.856,-2.4995 -0.76391,3.024 -15.538,4.3419 -19.429,5.6007 -11.779,3.5475 -12.615,6.2783 -23.711,4.8023 -2.2332,-0.42541 -8.6794,-2.4501 -10.681,-3.3905 -2.0014,-0.94041 -3.9329,-1.9913 -5.89,-2.8467 -1.9571,-0.85534 -3.94,-1.5193 -6.0405,-1.6895 -2.1005,-0.17017 -4.3265,0.15779 -6.7579,1.2729 -2.9538,1.6139 -6.362,2.7435 -9.1648,1.3076 0.65764,-3.6818 3.9644,-8.2082 4.6519,-8.5284 3.216,-1.7726 6.1044,-2.594 8.783,-2.7425 z m 8.4821,24.879 c 4.3703,-0.1531 8.4005,0.37525 12.312,1.2845 7.8237,1.8184 15.152,5.1588 23.653,7.5564 11.829,4.4855 21.913,2.7791 34.819,0.13886 12.271,-2.5103 27.575,-2.6243 40.559,-2.5805 -1.2464,3.1169 -25.359,4.4768 -31.707,5.7743 -19.218,3.6564 -20.581,6.4741 -38.684,4.9527 -3.6436,-0.43847 -14.173,-2.537 -17.439,-3.5062 -3.2654,-0.9693 -6.4114,-2.046 -9.6046,-2.9277 -3.1932,-0.88161 -6.4321,-1.5604 -9.8592,-1.7358 -3.4271,-0.1754 -7.0493,0.15831 -11.016,1.3076 -4.8194,1.6635 -10.378,2.8223 -14.951,1.3423 1.073,-3.7948 6.4694,-8.453 7.5911,-8.783 5.2472,-1.8271 9.9556,-2.6704 14.326,-2.8235 z m -0.48602,26.499 c 4.3703,-0.15308 8.4005,0.37526 12.312,1.2845 7.8237,1.8184 15.152,5.1472 23.653,7.5448 11.829,4.4855 21.913,2.7907 34.819,0.15044 12.271,-2.5103 27.575,-2.6243 40.559,-2.5805 -1.2464,3.1169 -25.359,4.4768 -31.707,5.7743 -19.218,3.6564 -20.581,6.4625 -38.684,4.9411 -3.6436,-0.43846 -14.173,-2.5254 -17.439,-3.4947 -3.2653,-0.9693 -6.4114,-2.046 -9.6046,-2.9277 -3.1932,-0.88161 -6.4321,-1.5719 -9.8592,-1.7473 -3.4271,-0.17541 -7.0493,0.15831 -11.016,1.3076 -4.8194,1.6635 -10.378,2.8339 -14.951,1.3539 1.073,-3.7948 6.4694,-8.4645 7.5911,-8.7946 5.2472,-1.8271 9.9556,-2.6588 14.326,-2.812 z"
       stroke-width="2.3699"
       style="paint-order:normal"
       id="path4" />
    <path
       d="m 199.57,47.833 -69.784,50.229 -14.85,25.215 27.662,-5.8637 70.24,-50.558 z"
       stroke-linecap="round"
       stroke-width="8.443"
       id="path6" />
    <path
       d="M 204.77,42.047 C 226.964,21.368 247,50.4345 219.744,63.273 Z"
       stroke-width="3.8444"
       id="path8" />
  </g>
</svg>
