<?xml version="1.0" encoding="UTF-8" standalone="no"?>
<svg
   xmlns:dc="http://purl.org/dc/elements/1.1/"
   xmlns:cc="http://creativecommons.org/ns#"
   xmlns:rdf="http://www.w3.org/1999/02/22-rdf-syntax-ns#"
   xmlns:svg="http://www.w3.org/2000/svg"
   xmlns="http://www.w3.org/2000/svg"
   xmlns:sodipodi="http://sodipodi.sourceforge.net/DTD/sodipodi-0.dtd"
   xmlns:inkscape="http://www.inkscape.org/namespaces/inkscape"
   inkscape:version="1.0 (4035a4fb49, 2020-05-01)"
   sodipodi:docname="search.svg"
   id="svg56"
   viewBox="0 0 399.15 348.31"
   version="1.1"
   height="41.125"
   width="42.759">
  <defs
     id="defs60" />
  <sodipodi:namedview
     inkscape:current-layer="svg56"
     inkscape:window-maximized="1"
     inkscape:window-y="-8"
     inkscape:window-x="1912"
     inkscape:cy="5.6175181"
     inkscape:cx="-20.425329"
     inkscape:zoom="1.2917933"
     showgrid="false"
     id="namedview58"
     inkscape:window-height="1017"
     inkscape:window-width="1920"
     inkscape:pageshadow="2"
     inkscape:pageopacity="0"
     guidetolerance="10"
     gridtolerance="10"
     objecttolerance="10"
     borderopacity="1"
     bordercolor="#666666"
     pagecolor="#ffffff" />
  <metadata
     id="metadata2">
    <rdf:RDF>
      <cc:Work
         rdf:about="">
        <dc:format>image/svg+xml</dc:format>
        <dc:type
           rdf:resource="http://purl.org/dc/dcmitype/StillImage" />
        <dc:title />
      </cc:Work>
    </rdf:RDF>
  </metadata>
  <g
     id="XMLID_13_"
     transform="matrix(6.6377,0,0,6.6377,-193.85,-154.81)"
     style="fill:#333333">
    <g
       fill="#333333"
       id="g49">
      <g
         id="XMLID_10_"
         fill="#333333">
        <g
           fill="#333333"
           id="g46">
          <path
             d="M 69.902,72.704 58.967,61.769 c -2.997,1.961 -6.579,3.111 -10.444,3.111 -10.539,0 -19.062,-8.542 -19.062,-19.081 0,-10.519 8.522,-19.061 19.062,-19.061 10.521,0 19.06,8.542 19.06,19.061 0,3.679 -1.036,7.107 -2.828,10.011 l 11.013,11.011 c 0.583,0.567 0.094,1.981 -1.076,3.148 l -1.64,1.644 c -1.17,1.167 -2.584,1.656 -3.15,1.091 z M 61.249,45.799 c 0,-7.033 -5.695,-12.727 -12.727,-12.727 -7.033,0 -12.745,5.694 -12.745,12.727 0,7.033 5.712,12.745 12.745,12.745 7.032,0 12.727,-5.711 12.727,-12.745 z"
             fill="#333333"
             id="path44" />
        </g>
      </g>
    </g>
  </g>
</svg>
