<svg id="Capa_1" enable-background="new 0 0 497 497" height="30" viewBox="0 0 497 497" width="30" xmlns="http://www.w3.org/2000/svg"><path d="m248.5 0v497c137.243 0 248.5-111.257 248.5-248.5s-111.257-248.5-248.5-248.5z" fill="#8ae7ff"/><path d="m248.5 0c-137.243 0-248.5 111.257-248.5 248.5 0 65.893 25.657 125.786 67.513 170.262-11.732 31.584-36.365 56.897-67.513 69.506 13.897 5.626 29.085 8.732 45 8.732 31.481 0 60.125-12.129 81.53-31.96 36.033 20.34 77.642 31.96 121.97 31.96 120.674 0 218.5-111.257 218.5-248.5s-97.826-248.5-218.5-248.5z" fill="#c4f3ff"/><path d="m248.5 60v377c104.106 0 188.5-84.394 188.5-188.5s-84.394-188.5-188.5-188.5z" fill="#ffb820"/><path d="m407 248.5c0-104.106-70.963-188.5-158.5-188.5-104.106 0-188.5 84.394-188.5 188.5s84.394 188.5 188.5 188.5c87.537 0 158.5-84.394 158.5-188.5z" fill="#ffd06a"/><circle cx="112.5" cy="248.5" fill="#ff7b2d" r="22.5"/><circle cx="384.5" cy="248.5" fill="#ff7b2d" r="22.5"/><circle cx="248.5" cy="293.5" fill="#ffb820" r="15"/><path d="m233.5 301c4.143 0 7.5-3.357 7.5-7.5 0-4.136 3.364-7.5 7.5-7.5s7.5 3.364 7.5 7.5c0 4.143 3.357 7.5 7.5 7.5s7.5-3.357 7.5-7.5c0-12.406-10.094-22.5-22.5-22.5s-22.5 10.094-22.5 22.5c0 4.143 3.357 7.5 7.5 7.5z" fill="#ff5d34"/><path d="m188.5 158.5c-16.569 0-30 13.432-30 30v45c0 16.568 13.431 30 30 30s30-13.432 30-30v-45c0-16.568-13.431-30-30-30z" fill="#fff"/><path d="m308.5 158.5c-16.569 0-30 13.432-30 30v45c0 16.568 13.431 30 30 30s30-13.432 30-30v-45c0-16.568-13.431-30-30-30z" fill="#fff"/><g fill="#373e9f"><path d="m188.5 233.5c-4.143 0-7.5-3.357-7.5-7.5v-30c0-4.143 3.357-7.5 7.5-7.5s7.5 3.357 7.5 7.5v30c0 4.143-3.357 7.5-7.5 7.5z"/><path d="m308.5 233.5c-4.143 0-7.5-3.357-7.5-7.5v-30c0-4.143 3.357-7.5 7.5-7.5s7.5 3.357 7.5 7.5v30c0 4.143-3.357 7.5-7.5 7.5z"/></g></svg>